<svg xmlns="http://www.w3.org/2000/svg" x="0px" y="0px"
width="64" height="64"
viewBox="0 0 172 172"
style=" fill:#000000;">
      <g fill="none" fill-rule="nonzero" stroke="none" stroke-width="1" stroke-linecap="butt" stroke-linejoin="miter" stroke-miterlimit="10" stroke-dasharray="" stroke-dashoffset="0" font-family="none" font-weight="none" font-size="none" text-anchor="none" style="mix-blend-mode: normal">
            <path d="M0,172v-172h172v172z" fill="none"></path>
            <g fill="#cccccc">
                  <path d="M126.26263,18.61041c-3.84648,0 -7.67617,1.27604 -10.83398,3.82916l-17.87293,14.24585c-1.74687,1.34375 -2.01562,3.89583 -0.67187,5.6427c1.34375,1.74687 3.89845,2.01563 5.64532,0.67188l17.8703,-14.24322c3.49375,-2.82187 8.33282,-2.82187 11.6922,0l23.78333,18.8125v110.58905l-18.67865,-14.9151c-6.45,-5.10625 -15.45208,-5.10625 -21.7677,0l-17.87293,14.24323c-1.74687,1.34375 -2.01562,3.89845 -0.67187,5.64532c1.34375,1.74687 3.89845,2.01563 5.64532,0.67188l17.8703,-14.24323c3.49375,-2.82188 8.33282,-2.82188 11.6922,0l25.26093,20.15625c0.67188,0.5375 1.61302,0.93958 2.55365,0.93958c0.5375,0 1.21042,-0.13542 1.74792,-0.40417c1.34375,-0.67187 2.28333,-2.14895 2.28333,-3.62708v-120.9375c0,-1.20938 -0.53698,-2.4198 -1.4776,-3.09167l-25.26355,-20.15625c-3.225,-2.55312 -7.08723,-3.82916 -10.93372,-3.82916zM126.32825,37.12109c-0.89023,0 -1.76367,0.30339 -2.43555,0.90808l-15.31665,12.2276c-2.28437,1.88125 -4.8396,3.49375 -7.5271,4.70313c-4.3,2.01563 -7.79375,5.5099 -9.40625,9.94427v0.13385c-2.55313,6.31562 4.1672,23.64947 12.36407,23.64947c10.34687,0 15.3177,-20.82812 18.40832,-20.82812c2.01563,0 5.10625,6.31458 8.73438,11.0177c2.41875,3.225 6.18073,4.97345 10.21198,4.97345c2.82188,0.13438 5.1073,-2.28543 5.1073,-5.1073v-24.72552c0,-1.20938 -0.53698,-2.41718 -1.4776,-3.08905l-16.125,-12.89948c-0.73906,-0.60469 -1.64767,-0.90808 -2.5379,-0.90808zM18.8125,41.65625c-5.9125,0 -10.75,4.8375 -10.75,10.75v107.5c0,5.9125 4.8375,10.75 10.75,10.75h64.5c2.28437,0 4.03125,-1.74687 4.03125,-4.03125c0,-2.28438 -1.74688,-4.03125 -4.03125,-4.03125h-64.5c-1.47812,0 -2.6875,-1.20937 -2.6875,-2.6875v-107.5c0,-1.47812 1.20938,-2.6875 2.6875,-2.6875h64.5c2.28437,0 4.03125,-1.74687 4.03125,-4.03125c0,-2.28438 -1.74688,-4.03125 -4.03125,-4.03125zM56.40601,74.75922c-6.80142,0.04462 -13.74194,5.85004 -14.74976,14.33246c-0.94062,8.0625 -5.77865,16.39218 -9.94428,20.5578c-0.5375,0.5375 -1.2099,0.94063 -1.88177,1.34375c-2.82187,1.34375 -4.4328,4.43385 -4.4328,7.52448v30.63855c0,2.28438 1.74687,4.03125 4.03125,4.03125h25.6651c0.80625,0 1.74792,-0.26823 2.4198,-0.80573c2.15,-1.47813 3.89478,-3.49532 5.23853,-5.64532c1.47813,-2.55312 3.225,-5.50728 4.03125,-8.5979c5.77812,-22.17187 -13.4354,-22.9797 -13.9729,-27.8172c-0.5375,-5.64375 6.58333,-9.67552 11.0177,-13.97552c4.3,-4.3 5.50938,-10.88438 3.35938,-14.78125c-2.6707,-4.78711 -6.70064,-6.83213 -10.78149,-6.80536zM86.06036,95.72119c-4.47978,-0.07762 -7.58484,5.86578 -7.58484,5.86578c-4.03125,4.03125 -6.31562,2.0151 -8.0625,6.18073c-1.88125,4.56875 -0.5375,12.76667 7.39063,9.13855c5.375,-2.55313 6.71875,-3.89792 9.40625,-8.46667c3.89688,-6.71875 4.97135,-9.5401 2.14947,-11.55573c-1.15898,-0.80625 -2.26522,-1.14475 -3.29901,-1.16266zM133.6795,98.01501c-3.53207,0.19211 -8.45985,1.94424 -15.1618,6.52979c-5.10625,3.49375 -14.10728,-3.76355 -18.00415,1.61145c-3.7625,5.24063 15.98905,21.23125 22.57343,18.14063c11.15312,-5.24063 18.41095,-16.125 18.41095,-20.15625c0.08398,-2.43555 -1.93164,-6.4458 -7.81842,-6.12561z"></path>
            </g>
      </g>
</svg>